<?xml version="1.0" encoding="UTF-8"?>
<svg id="uuid-f7fd4977-0cc1-4b87-a87a-e6c60e6808b0" data-name="Layer 1" xmlns="http://www.w3.org/2000/svg" viewBox="0 0 120.543 176.781">
  <path d="M120.186,4.376c-.24-.893-.537-1.34-.894-1.34-1.428,0-2.59.419-3.483,1.25-.893.835-2.055,1.609-3.483,2.322-1.907.835-4.171,1.491-6.789,1.965-2.62.477-6.015.715-10.182.715h-62.879c-2.502,0-5.032-.296-7.592-.893-2.562-.595-4.198-1.488-4.912-2.68-.477-.952-1.222-2.143-2.233-3.573-1.014-1.43-1.759-2.143-2.234-2.143-.477,0-1.043.178-1.696.535-.657.357-1.102,1.549-1.34,3.573-.477,3.692-1.102,6.877-1.877,9.557-.775,2.68-1.995,5.747-3.661,9.2-.597,1.192-.894,2.384-.894,3.573,0,.597.09,1.133.268,1.608.179.477.506.715.984.715.951,0,1.903-.416,2.858-1.25.951-.832,1.845-1.815,2.68-2.947.831-1.13,1.428-1.993,1.786-2.59,1.31-2.382,3.364-4.137,6.163-5.27,2.797-1.13,5.627-1.697,8.486-1.697h8.395c3.095,0,5.565.03,7.413.09,1.845.061,3.602.268,5.27.625.952.12,1.697.775,2.234,1.965.535,1.191.921,3.245,1.161,6.163.063.777.117,1.659.163,2.617-3.788.747-7.496,1.767-11.113,3.094-8.279,3.038-15.631,7.298-22.062,12.773-6.432,5.478-11.494,11.911-15.184,19.293-3.692,7.385-5.537,15.424-5.537,24.115,0,9.052,1.755,17.299,5.27,24.74,3.511,7.446,8.307,13.818,14.38,19.114,6.074,5.301,12.979,9.379,20.722,12.236,7.74,2.859,15.779,4.289,24.116,4.289,5.234,0,10.597-.356,16.074-1.026.136,1.264.224,2.582.224,4.001,0,4.407-.923,8.247-2.768,11.522-1.849,3.276-4.377,5.805-7.592,7.591-3.216,1.787-6.909,2.68-11.076,2.68-5.121,0-10.033-1.965-14.737-5.895-4.705-3.93-8.247-10.478-10.628-19.65-.12-.715-.477-1.22-1.072-1.518-.597-.297-1.192-.447-1.787-.447-.955,0-1.786.21-2.5.625-.715.419-1.072,1.044-1.072,1.875.237,2.502.447,5.659.625,9.469.179,3.812.565,6.908,1.162,9.288.237.715.563,1.371.982,1.965.416.597.863,1.134,1.34,1.608,3.333,2.741,7.115,4.854,11.343,6.342,4.226,1.488,8.842,2.233,13.844,2.233,7.86,0,14.707-1.428,20.542-4.287,5.834-2.858,10.361-6.936,13.577-12.236,3.207-5.283,4.813-11.429,4.821-18.433.836-.287,1.678-.57,2.46-.887,1.903-.596,3.126-1.131,3.662-1.609.535-.475,1.219-1.546,2.053-3.215.715-1.786,1.457-3.84,2.234-6.161.773-2.324,1.398-4.526,1.875-6.61.475-2.084.715-3.6.715-4.555,0-1.904-.804-2.859-2.412-2.859s-2.83.775-3.662,2.321c-2.621,4.688-5.622,8.668-8.984,11.977-.505-1.247-1.086-2.44-1.779-3.552-2.562-4.109-5.837-7.65-9.825-10.629-3.992-2.975-8.069-5.716-12.237-8.217-.489-.304-.935-.599-1.416-.901-.024-.398-.092-.757-.092-1.176v-44.147c3.809.534,7.058,2.117,9.725,4.781,3.333,3.336,6.252,8.159,8.754,14.469.236.715.863,1.312,1.875,1.787,1.01.477,2.055.715,3.126.715,1.787,0,2.68-.653,2.68-1.965,0-2.859-.418-5.895-1.25-9.11-.835-3.216-1.608-6.074-2.322-8.575-.24-.952-.687-1.845-1.34-2.68-.655-.832-1.46-1.43-2.411-1.787-1.907-.831-4.439-1.697-7.592-2.59-3.157-.893-6.877-1.34-11.165-1.34-.028,0-.052.004-.08.004v-19.766c0-1.788.015-3.426.041-4.939,3.938.146,7.667.618,11.16,1.453,4.226,1.013,7.828,2.529,10.807,4.555,3.095,2.142,5.418,4.853,6.966,8.126,1.547,3.278,2.917,7.177,4.109,11.7.357,1.313,1.041,2.086,2.055,2.324,1.01.24,1.965.09,2.858-.446.893-.538,1.278-1.221,1.161-2.055-.12-4.645-.356-8.546-.714-11.7s-.657-6.103-.894-8.844c-.12-1.667-.566-2.975-1.34-3.93-.775-.952-2.053-1.667-3.84-2.144-4.05-1.071-7.592-1.933-10.628-2.59-3.037-.654-6.164-1.161-9.379-1.517-3.215-.359-7.145-.538-11.79-.538-.113,0-.224.007-.336.007.08-1.399.179-2.602.301-3.575.357-2.858,1.188-4.645,2.5-5.358,1.31-.715,3.275-1.072,5.895-1.072h18.042c5.717,0,9.764.745,12.147,2.233,2.382,1.49,3.81,3.483,4.287,5.985.475,2.263.952,4.05,1.43,5.358.475,1.312,1.13,1.966,1.965,1.966.952,0,1.666-.684,2.143-2.055.475-1.368.715-2.59.715-3.662v-2.144c0-1.546.059-2.678.179-3.393.116-.715.326-1.547.625-2.502.296-.951.625-2.5.982-4.643.118-.595.268-1.43.446-2.502.179-1.072.269-1.903.269-2.5,0-.952-.12-1.877-.357-2.769ZM54.091,97.165c-2.236-1.828-4.164-3.718-5.726-5.682-2.322-2.917-3.484-6.163-3.484-9.735,0-5.002.982-8.99,2.947-11.969,1.671-2.529,3.775-4.42,6.263-5.747v33.133ZM47.65,59.686c-5.537,2.92-9.677,6.819-12.415,11.7-2.741,4.885-4.109,10.361-4.109,16.434,0,5.717,1.488,10.57,4.467,14.559,2.975,3.992,6.726,7.502,11.253,10.54,1.203.808,2.446,1.595,3.658,2.399-2.384,2.079-5.83,3.535-10.346,4.366-2.026.357-3.513.777-4.465,1.25-.955.477-1.43,1.134-1.43,1.965,0,.715.475,1.22,1.43,1.519.952.296,2.202.446,3.752.446,3.215,0,5.983-.088,8.306-.268,2.322-.178,4.583-.33,6.789-.447,2.201-.12,4.792-.178,7.77-.178.537,0,1.045.004,1.55.008,2.898,1.859,5.449,3.621,7.639,5.284,2.975,2.264,5.27,4.912,6.877,7.949.298.562.539,1.188.781,1.813-3.609,1.029-7.601,1.552-11.989,1.552-7.385,0-14.084-1.696-20.095-5.09-6.015-3.394-11.196-7.918-15.542-13.575-4.349-5.655-7.682-11.998-10.004-19.024s-3.483-14.171-3.483-21.438c0-6.547,1.19-12.861,3.573-18.935,2.38-6.074,5.685-11.521,9.914-16.345,4.226-4.824,9.289-8.633,15.184-11.431,2.36-1.12,4.824-1.954,7.346-2.626.019,1.349.031,2.772.031,4.327v20.77c-2.3.666-4.489,1.447-6.441,2.475Z"/>
</svg>