<svg xmlns="http://www.w3.org/2000/svg" width="400" height="400" viewBox="0 0 400 400" fill="none">
  <rect width="400" height="400" fill="#f3f4f6"/>
  <g transform="translate(150, 150)">
    <path d="M4 16l4.586-4.586a2 2 0 012.828 0L16 16m-2-2l1.586-1.586a2 2 0 012.828 0L20 14m-6-6h.01M6 20h12a2 2 0 002-2V6a2 2 0 00-2-2H6a2 2 0 00-2 2v12a2 2 0 002 2z" stroke="#9ca3af" stroke-width="8" stroke-linecap="round" stroke-linejoin="round" fill="none" transform="scale(4)"/>
  </g>
  <text x="200" y="320" text-anchor="middle" fill="#6b7280" font-family="Arial, sans-serif" font-size="18">No Image</text>
</svg>