<?xml version="1.0" encoding="UTF-8"?>
<svg id="Layer_1" xmlns="http://www.w3.org/2000/svg" version="1.1" viewBox="0 0 140.7 50.2">
  <!-- Generator: Adobe Illustrator 29.5.0, SVG Export Plug-In . SVG Version: 2.1.0 Build 137)  -->
  <defs>
    <style>
      .st0 {
        fill: #fafaf9;
      }
    </style>
  </defs>
  <path class="st0" d="M75,28.7c-.2,0-.5.1-.8.4-.5.4-1.1.9-1.7,1.3-.6.4-1.2.8-1.9,1.2-.6.3-1.3.6-2,.8-.7.2-1.3.3-2,.3s-1.4-.2-2-.5c-.6-.3-1.2-.9-1.7-1.7-.2-.3-.5-.5-.7-.5s-.4,0-.7.2c-.2.1-.5.3-.7.5-.2.2-.5.4-.7.6-.2.2-.4.4-.6.5.3-.7.8-1.6,1.3-2.6,0-.2.1-.3.1-.4,0-.3-.2-.5-.6-.5s-.4,0-.7.2h-.1c-.1.2-.2.3-.3.4-.2.3-.6.7-1,1.1-.4.5-.9.9-1.3,1.3s-1,.8-1.5,1.1c-.5.3-1,.5-1.4.5s-.9-.2-1.1-.6c-.2-.4-.3-.9-.3-1.4v-.4c.3,0,.4-.4.4-.9s0-.6-.2-.9c-.1-.3-.4-.5-.7-.6-.1-.5-.5-.7-1.2-.7s-1,.2-1.5.5c-.4.3-.7.6-1,1h0c-1,.6-2.1,1.2-3.2,1.9-1.1.7-2.2,1.5-3.2,2.3,0-.9.1-1.7.2-2.6,0-.9.2-1.6.4-2.2.4-.6.6-1.2.8-1.5.1-.4.2-.7.2-.9s0-.3-.2-.3-.4.2-.8.5-.6.8-.8,1.3c0,.2-.2.5-.2.7,0,.2-.1.5-.2.8-.2.4-.5.8-.7,1.2-.2.4-.5.7-.7,1-.2.3-.4.5-.6.7-.2.2-.4.3-.5.3-.3,0-.6-.1-.7-.4-.1-.2-.2-.5-.2-.9s0-.9.2-1.4c.1-.4.3-.7.5-1,.2-.3.3-.5.3-.6v-.2c-.3,0-.4,0-.6,0-.5,0-.9.2-1.3.6-.3.3-.4.6-.5,1.1-.3.3-.7.6-1.2,1-.6.5-1.2.9-1.8,1.3-.6.4-1.2.8-1.7,1.1-.5.3-1,.4-1.3.4s-.5,0-.7-.3c-.2-.2-.3-.4-.5-.7-.1-.3-.2-.6-.3-.9,0-.3,0-.6,0-.8s0-.7-.1-1.1c0-.4-.2-.8-.4-1.1-.2-.3-.4-.6-.6-.9-.3-.2-.5-.4-.9-.4s-.2,0-.3,0c-.3-.4-.7-.8-1.2-1.1-.6-.4-1.5-.8-2.4-1-1-.2-2.1-.4-3.5-.3-.8,0-1.6,0-2.5.2-.9.1-1.9.3-2.9.5,3.2-1.7,5.9-3.4,8.1-5.1,2.2-1.7,4.1-3.4,5.5-5,1.4-1.6,2.5-3.2,3.1-4.6.6-1.5,1-2.8,1-4,0-1.9-.8-3.4-2.2-4.6-1.5-1.1-3.5-1.7-6.1-1.7-1.4,0-2.9.2-4.5.6-1.6.4-3.4,1-5.2,1.8-1.8.8-3.8,1.9-5.8,3.2-2,1.3-4.1,2.9-6.2,4.7-.8.7-1.4,1.3-1.7,1.8C.2,13,0,13.4,0,13.7c0,.3.2.4.5.4.4,0,1.1-.3,2-.9.3-.2.7-.5.9-.8.3-.3.5-.6.8-.9.2-.3.5-.6.7-.9.2-.3.4-.5.6-.6,4-3.1,7.6-5.4,10.9-6.7,3.3-1.4,6.1-2,8.4-2.1,2.1,0,3.8.4,5,1.3,1.2.9,1.8,2.2,1.8,3.7,0,1.2-.4,2.6-1.2,4.1-.8,1.5-2,3.1-3.6,4.8-1.6,1.7-3.7,3.4-6.3,5.2s-5.5,3.6-9,5.4c-.5.3-.8.4-.8.4,0,0-.1,0-.1-.2v-.3c0-3,.2-5.8.4-8.5.2-2.7.5-5.1.7-7.1,0-.1,0-.2,0-.4,0-.5-.1-.7-.4-.7-.2,0-.5.2-.7.5-.3.3-.5.8-.5,1.4-.3,2.4-.6,4.8-.9,7.4-.3,2.6-.4,5.2-.5,7.8,0,.2,0,.4,0,.5,0,.1,0,.2-.1.3,0,0-.1.1-.3.2-.1,0-.3.1-.5.2-1.3.6-1.9,1-1.9,1.3,0,.2.2.2.6.2.2,0,.4,0,.6,0,.2,0,.5,0,.9-.1.1,0,.2,0,.3,0h.2c.1,0,.2,0,.2.2s0,.3,0,.7c0,2.1.1,4.1.3,6.1.2,2,.5,3.9.9,5.7.3,1,.5,1.8.8,2.3.3.5.6.8.8.8.3,0,.4-.3.4-.9,0-.4,0-.8-.2-1.2-.3-1.1-.5-2.2-.7-3.4-.2-1.2-.3-2.5-.4-3.8.5.6,1.2,1.1,2.1,1.4,1,.3,2.1.4,3.5.4,1,0,2.2-.2,3.5-.5,1.3-.3,2.6-.8,3.8-1.4,1.2-.6,2.2-1.4,3-2.4.7-.9,1.1-1.9,1.2-3.1.1,0,.3.1.4.2.2.1.3.3.4.5s.1.6.1,1.1c0,.9.2,1.7.5,2.3.3.6.8.9,1.4.9s.9-.2,1.5-.5c.6-.3,1.3-.8,1.9-1.3.7-.5,1.3-1,1.9-1.6.3-.3.6-.5.9-.8,0,.6.1,1.1.3,1.6.2.6.6,1,1.2,1,.5,0,1-.2,1.5-.6.5-.4,1-.9,1.4-1.5-.1.6-.2,1.2-.3,1.8s-.2,1.2-.2,1.8c-.6.6-1.2,1.2-1.8,1.9-.6.7-1,1.4-1.5,2.2-.4.8-.7,1.6-1,2.4-.3.9-.4,1.8-.4,2.7,0,1.7.4,3.5,1.3,5.4.2.4.4.6.5.8.2.2.4.2.5.2s.4,0,.5-.2c.2-.1.3-.3.5-.4.1-.2.3-.4.4-.5,0-.2.2-.3.2-.5.5-1.5.9-3.4,1.2-5.4s.5-4.2.7-6.3c0-.3,0-.7.1-1.2,0-.4,0-.9,0-1.4,1-.9,2.2-1.7,3.4-2.5.8-.5,1.6-1,2.4-1.5,0,.2-.2.3-.2.5-.2.6-.3,1.1-.3,1.6s.2.9.6,1.2c.4.3.7.4,1,.4s.5-.1.8-.3c.3-.2.5-.4.8-.7.3-.3.5-.6.8-1,.3-.3.5-.7.7-1,.1.8.4,1.5.8,2.1.4.6.9.9,1.6.9s.9-.2,1.4-.5c.5-.3,1-.7,1.5-1.2.3-.3.6-.6.9-.9-.1.4-.3.7-.3.9,0,0,0,.2,0,.4,0,.4.1.7.3.9s.5.3.8.3.4,0,.6-.2c.6-.3,1.5-1.1,2.9-2.5.6.9,1.2,1.5,1.9,1.8.7.3,1.4.5,2.2.5s1.4-.1,2.1-.3c.7-.2,1.4-.5,2.1-.9.7-.4,1.4-.8,2-1.3.7-.5,1.3-.9,1.8-1.4.4-.3.6-.6.6-.8s0-.2-.2-.2ZM25.6,32.5c-.6.7-1.3,1.3-2.2,1.7-.9.5-1.9.8-3,1.1-1.1.2-2.2.4-3.2.4-.7,0-1.4,0-2.1-.1-.7,0-1.2-.3-1.7-.5-.5-.2-.9-.5-1.1-.8-.3-.3-.4-.7-.4-1.2v-.3c0-.6,0-1-.2-1.3-.1-.2-.3-.4-.4-.4-.3,0-.5.2-.7.6v-2.4c0-.3,0-.6,0-.8s0-.3.2-.5c0-.1.2-.2.4-.3l.8-.2c1.6-.4,3-.8,4.3-1,1.3-.2,2.5-.3,3.5-.3,2.3,0,4,.3,5.2,1.1,1.1.8,1.7,1.7,1.7,2.7,0,.9-.3,1.7-.9,2.4ZM40.4,36.4c0,.2,0,.6-.1,1.1-.1,1.1-.2,2.2-.3,3.3-.1,1.1-.3,2.1-.4,3.1-.2,1-.4,1.9-.6,2.8-.2.9-.5,1.6-.8,2.3-.9-1.8-1.3-3.6-1.3-5.2s.3-2.9,1-4.2c.7-1.3,1.5-2.5,2.5-3.7,0,.1,0,.3,0,.5ZM52,28.9c-.8,1.3-1.4,2.2-1.8,2.7-.4.5-.7.7-.9.7s-.2,0-.2-.2,0-.4.2-.8c.1-.3.3-.7.5-1,.2-.4.4-.7.7-1,.3-.3.5-.6.8-.8.2-.1.3-.2.5-.2s.3,0,.3.3,0,.2-.1.4Z"/>
  <path class="st0" d="M121,28.2c-.2-.5-.5-1-.9-1.3-.2-.3-.5-.5-.8-.5-.5,0-.9.2-1.3.5-.4.3-.7.6-1,1.1-.1.2-.3.5-.4.7-.3.4-.7.8-1.2,1.2-.5.5-1,1-1.6,1.5-.5.5-1.1.9-1.6,1.2s-1,.5-1.3.5-.7-.2-.9-.6c-.2-.4-.3-1-.3-1.7s0-1.3.2-2c.1-.8.2-1.5.4-2.3.2-.8.3-1.6.5-2.3.2-.8.4-1.5.5-2.1.3,0,.5,0,.8,0,.3,0,.6,0,.9,0,.1,0,.3,0,.4,0,.2,0,.4,0,.6-.1.2,0,.4-.1.5-.2.1,0,.2-.2.2-.3s-.1-.2-.4-.2-.3,0-.4,0c-.5,0-.9,0-1.3,0-.4,0-.8,0-1.2.1,0-.3,0-.6-.2-1-.1-.3-.3-.5-.5-.5s-.3,0-.4.3c-.1.2-.3.5-.5,1.1v.2c-.4,0-.7,0-1,0h-1c-.4,0-.8,0-1.1-.1-.1,0-.3,0-.4,0h0c0-.2-.1-.2-.4-.2s-.3,0-.4,0c-.5,0-.9,0-1.3,0-.4,0-.8,0-1.2.1,0-.3,0-.6-.2-1-.1-.3-.3-.5-.5-.5s-.3,0-.4.3c-.1.2-.3.5-.5,1.1v.2c-.4,0-.7,0-1,0h-1c-.4,0-.8,0-1.1-.1h-.3c.5-.2,1.1-.4,1.6-.6,1.5-.6,2.9-1.4,4.1-2.3,1.2-1,2.2-2.1,3-3.5.8-1.4,1.3-3,1.5-4.8.1-1.4,0-2.7-.7-3.8-.6-1.1-1.3-2-2.3-2.8-.9-.8-2-1.4-3.2-1.9-1.2-.5-2.3-.8-3.5-1.1-.5-.1-1.1-.2-1.6-.3-.6,0-1.1-.2-1.7-.2-1.5-.1-2.9-.2-4.4-.1-1.5,0-2.9.2-4.4.3-2.2.3-4.5.6-6.7,1.1-2.2.5-4.4,1-6.6,1.6-1.5.4-2.6.8-3.2,1.2s-1,.6-1,.9c0,.2,0,.3.3.4.2.1.5.2.9.2.7,0,1.6,0,2.6-.1.5,0,1.1-.3,1.7-.6.6-.3,1.3-.6,1.9-.7,1.5-.4,3-.7,4.6-1.1,1.6-.4,3.1-.7,4.7-.9,1.6-.3,3.1-.4,4.7-.6,1.5-.1,3.1-.1,4.5,0,.5,0,1,.1,1.5.2.5,0,1,.2,1.4.3.9.2,1.9.6,2.9,1.2,1,.5,1.9,1.2,2.8,2.1s1.5,1.8,2,2.8c.5,1.1.7,2.3.5,3.6-.1,1.4-.5,2.6-1.2,3.6-.7,1.1-1.5,2-2.5,2.7-1,.8-2.2,1.4-3.4,1.9-1.3.5-2.6.9-3.9,1.1-1.3.3-2.6.4-3.9.5-1.3,0-2.5,0-3.5,0-.4,0-.8,0-1.1-.1-.4,0-.8-.1-1.1-.2-.6-.1-1-.2-1.2-.4-.2-.2-.3-.5-.2-1v-.4c.4-2.1.7-4.1,1.1-6,.4-1.9.8-3.6,1.1-5.2,0-.1,0-.2,0-.4,0-.5,0-.7-.3-.7-.2,0-.5.1-.8.5-.3.3-.5.8-.7,1.3-.4,1.6-.8,3.2-1.1,4.9-.4,1.7-.7,3.4-1,5.1,0,.4-.2.6-.2.8s-.2.3-.4.3c-.3,0-.6-.2-1-.4-.4-.3-.8-.6-1.1-.9-.4-.4-.7-.8-1-1.1-.3-.4-.4-.7-.4-1-.1-.5-.2-1.1-.1-1.7v-.8c0-.3.1-.7.1-1,0-.3,0-.7,0-.9,0,0,0-.2,0-.3,0-.2,0-.3-.2-.3,0,0-.2,0-.3.1-.1,0-.2.2-.3.3,0,.1-.2.2-.3.4,0,.1-.2.2-.2.3-.5.8-.8,1.8-.9,2.9,0,.8,0,1.6.3,2.4.3.8.8,1.5,1.5,2.1.7.6,1.5,1.1,2.3,1.5.1,0,.3.1.4.2.1,0,.2,0,.3.1.4.2.7.3.8.4,0,.1.1.3,0,.6-.1,1.2-.2,2.1-.3,2.7s-.1,1.3-.2,1.8c-.2,2.1-.3,4.1-.3,6.1,0,2,.1,4,.4,5.9.1,1,.3,1.8.6,2.3.2.5.5.8.7.8.3,0,.4-.2.5-.8,0-.2,0-.3,0-.6s0-.4,0-.7c-.2-1.7-.4-3.6-.3-5.8,0-2.1.1-4.4.3-6.7,0-.6.1-1.2.2-1.9,0-.6.1-1.2.2-1.8,0-.7.2-1.2.4-1.4.2-.2.5-.2,1.1-.2h1.2c1.3.2,2.6.2,4.2.2,1.5,0,3.1-.2,4.7-.5.5,0,1-.2,1.5-.4h0c.2.1.6.2,1.2.2.6,0,1.2,0,1.8,0h1.7c-.2.6-.4,1.3-.6,2.1-.2.7-.4,1.5-.6,2.3-.2.7-.3,1.4-.4,2.1-.2.3-.5.6-.9,1.1-.4.5-.9.9-1.3,1.3s-1,.8-1.5,1.1c-.5.3-1,.5-1.4.5s-.9-.2-1.1-.6c-.2-.4-.3-.9-.3-1.4v-.4c.3,0,.4-.4.4-.9s0-.6-.2-.9c-.1-.3-.4-.5-.7-.6-.1-.5-.5-.7-1.2-.7s-1,.2-1.5.5c-.5.3-.9.8-1.2,1.3-.3.5-.6,1-.8,1.6-.2.6-.3,1.1-.3,1.6s.2.9.6,1.2c.4.3.7.4,1,.4s.5-.1.8-.3c.3-.2.5-.4.8-.7.3-.3.5-.6.8-1,.3-.3.5-.7.7-1,.1.8.4,1.5.8,2.1.4.6.9.9,1.6.9s.9-.2,1.4-.5c.5-.3,1-.7,1.5-1.2.5-.4,1-.9,1.4-1.4.2-.2.3-.4.5-.5,0,.3,0,.6,0,.9,0,1,.2,1.9.5,2.6.3.7.9,1,1.8,1s1-.2,1.6-.5c.6-.3,1.2-.8,1.8-1.3.6-.5,1.2-1.1,1.8-1.7.3-.3.6-.7.9-1,0,.3,0,.6,0,.9,0,1,.2,1.9.5,2.6.3.7.9,1,1.8,1s1-.2,1.6-.5c.6-.3,1.2-.8,1.8-1.3.6-.5,1.2-1.1,1.8-1.7.2-.2.4-.4.6-.7,0,.2,0,.4,0,.7,0,.7.2,1.3.5,1.8.3.5.9.8,1.6.8s.9-.1,1.3-.3c.4-.2.7-.5,1-.9.3-.4.5-.8.6-1.2.1-.4.2-.9.2-1.3s-.1-1.1-.3-1.6ZM92.5,28.4c-.8,1.3-1.4,2.2-1.8,2.7-.4.5-.7.7-.9.7s-.2,0-.2-.2,0-.4.2-.8c.1-.3.3-.7.5-1,.2-.4.4-.7.7-1,.3-.3.5-.6.8-.8.2-.1.3-.2.5-.2s.3,0,.3.3,0,.2-.1.4ZM109.2,24.1c-.2.7-.4,1.5-.6,2.3-.2.8-.3,1.5-.4,2.2-.3.4-.7.8-1.2,1.3-.5.5-1,1-1.6,1.5-.5.5-1.1.9-1.6,1.2s-1,.5-1.3.5-.7-.2-.9-.6c-.2-.4-.3-1-.3-1.7s0-1.3.2-2c.1-.8.2-1.5.4-2.3.2-.8.3-1.6.5-2.3.2-.8.4-1.5.5-2.1.3,0,.5,0,.8,0,.3,0,.6,0,.9,0,.1,0,.3,0,.4,0h0c.2,0,.6,0,1,.1.6,0,1.2,0,1.8,0h1.7c-.2.6-.4,1.3-.6,2.1ZM119.9,29.9c0,.4-.2.8-.4,1.2-.2.4-.4.7-.7,1-.3.3-.6.4-.9.5-.5,0-.7-.2-.7-.6s0-.6.3-1.1c.2-.4.4-.8.7-1.2s.5-.8.8-1.1c.3-.3.5-.6.7-.7.2.3.3.7.3,1.1s0,.6-.1,1Z"/>
  <path class="st0" d="M140.5,28.1c-.2,0-.5.1-.8.4-.5.4-1.1.9-1.7,1.3-.6.4-1.2.8-1.9,1.2-.6.3-1.3.6-2,.8-.7.2-1.3.3-2,.3s-1.4-.2-2-.5c-.6-.3-1.2-.9-1.7-1.7-.2-.3-.5-.5-.7-.5s-.4,0-.7.2c-.2.1-.5.3-.7.5-.2.2-.5.4-.7.6-.2.2-.4.4-.6.5.3-.7.8-1.6,1.3-2.6,0-.2.1-.3.1-.4,0-.3-.2-.5-.6-.5s-.4,0-.7.2c-.2.2-.5.4-.6.8-.7,1.4-1.2,2.4-1.4,3.1,0,0,0,.2,0,.4,0,.4.1.7.3.9s.5.3.8.3.4,0,.6-.2c.6-.3,1.5-1.1,2.9-2.5.6.9,1.2,1.5,1.9,1.8.7.3,1.4.5,2.2.5s1.4-.1,2.1-.3c.7-.2,1.4-.5,2.1-.9.7-.4,1.4-.8,2-1.3.7-.5,1.3-.9,1.8-1.4.4-.3.6-.6.6-.8s0-.2-.2-.2Z"/>
</svg>