<?xml version="1.0" encoding="UTF-8"?>
<svg id="uuid-251a88c1-f512-4880-bf11-9e36381d4100" data-name="Layer 1" xmlns="http://www.w3.org/2000/svg" viewBox="0 0 140.695 50.247">
  <path d="M92.337,27.74c-.134,0-.293.054-.48.16-.294.214-.574.487-.84.82-.267.333-.5.68-.7,1.04-.2.36-.36.7-.48,1.02-.12.32-.18.574-.18.76,0,.16.053.24.16.24.16,0,.453-.247.88-.74.426-.493,1.026-1.38,1.8-2.66.08-.16.12-.28.12-.36,0-.186-.094-.28-.28-.28Z" fill="none"/>
  <path d="M24.73,27.419c-1.115-.761-2.833-1.129-5.152-1.104-1.04.011-2.206.118-3.497.318-1.292.2-2.721.523-4.29.966-.319.084-.572.167-.757.248-.187.082-.318.184-.397.305-.079.121-.131.275-.155.462s-.035.44-.032.76l.027,2.44c.208-.428.446-.645.713-.647.133-.001.261.117.384.355.123.239.188.665.194,1.278l.003.32c.005.454.149.838.433,1.156.283.317.667.586,1.149.807.482.222,1.05.382,1.705.482.655.1,1.355.145,2.102.137,1.04-.011,2.112-.136,3.216-.375,1.104-.238,2.1-.596,2.988-1.073.888-.476,1.622-1.058,2.201-1.744.579-.687.864-1.483.854-2.39-.011-1.04-.575-1.939-1.689-2.702Z" fill="none"/>
  <path d="M36.935,43.767c0,1.6.426,3.32,1.28,5.16.293-.64.546-1.394.76-2.26.213-.867.406-1.794.58-2.78.173-.987.32-2.02.44-3.1.12-1.08.233-2.167.34-3.26.053-.586.086-.966.1-1.14.013-.173.02-.326.02-.46-1.014,1.147-1.854,2.374-2.52,3.68-.667,1.307-1,2.693-1,4.16Z" fill="none"/>
  <path d="M106.256,22.02c-.448-.02-.785-.062-1.019-.123-.007,0-.013.004-.02.005-.187.026-.334.038-.44.038-.347.027-.654.047-.92.06-.267.014-.534.02-.8.02-.16.64-.34,1.34-.54,2.1-.2.76-.38,1.534-.54,2.32-.16.787-.293,1.56-.4,2.32-.107.76-.16,1.434-.16,2.02,0,.693.086,1.247.26,1.66.173.414.473.62.9.62.373,0,.82-.16,1.34-.48s1.046-.72,1.58-1.2c.533-.48,1.053-.98,1.56-1.5.457-.469.839-.882,1.166-1.253.106-.736.243-1.484.414-2.247.173-.773.36-1.526.56-2.26.2-.733.394-1.42.58-2.06h-1.7c-.573,0-1.18-.013-1.82-.04Z" fill="none"/>
  <path d="M51.854,28.287c-.134,0-.293.054-.48.16-.294.214-.574.487-.84.82-.267.333-.5.68-.7,1.04-.2.36-.36.7-.48,1.02-.12.32-.18.574-.18.76,0,.16.053.24.16.24.16,0,.453-.247.88-.74.426-.493,1.026-1.38,1.8-2.66.08-.16.12-.28.12-.36,0-.186-.094-.28-.28-.28Z" fill="none"/>
  <path d="M118.991,28.48c-.289.334-.559.7-.809,1.1s-.467.807-.65,1.22c-.184.414-.276.767-.276,1.06,0,.427.236.64.71.64.341-.026.644-.18.907-.46.262-.28.486-.606.67-.98.184-.373.315-.76.394-1.16.079-.4.119-.733.119-1,0-.4-.106-.773-.316-1.12-.21.134-.46.367-.75.7Z" fill="none"/>
  <path d="M74.974,28.687c-.24,0-.507.134-.8.4-.507.427-1.067.854-1.68,1.28-.614.427-1.24.813-1.88,1.16-.64.347-1.294.627-1.96.84-.667.213-1.32.32-1.96.32-.694,0-1.354-.173-1.98-.52-.627-.346-1.18-.906-1.66-1.68-.214-.32-.454-.48-.72-.48-.213,0-.44.074-.68.22-.24.147-.48.32-.72.52-.24.2-.467.4-.68.6-.214.2-.4.367-.56.5.32-.693.76-1.56,1.32-2.6.08-.16.12-.293.12-.4,0-.347-.187-.52-.56-.52-.214,0-.44.08-.68.24-.052.035-.099.095-.149.14-.1.067-.21.167-.331.3-.24.294-.567.667-.98,1.12-.414.454-.86.9-1.34,1.34s-.974.814-1.48,1.12c-.507.307-.96.46-1.36.46-.534,0-.887-.205-1.06-.616-.173-.41-.26-.88-.26-1.41v-.397c.266-.08.4-.371.4-.874,0-.291-.074-.595-.22-.913-.147-.317-.38-.529-.7-.635-.134-.477-.547-.715-1.24-.715-.534,0-1.034.167-1.5.5-.385.275-.713.624-1.006,1.016-.032.017-.06.024-.093.044-.987.534-2.054,1.167-3.2,1.9-1.147.734-2.2,1.487-3.16,2.26.053-.88.126-1.746.22-2.6.093-.853.233-1.6.42-2.24.373-.64.626-1.153.76-1.54.133-.386.2-.687.2-.9s-.067-.32-.2-.32c-.187,0-.44.18-.76.54s-.574.794-.76,1.3c-.08.24-.16.48-.24.72-.08.24-.147.494-.2.76-.24.4-.48.787-.72,1.16-.24.374-.467.707-.68,1-.214.294-.42.534-.62.72-.2.187-.38.28-.54.28-.347,0-.58-.12-.7-.36-.12-.24-.18-.533-.18-.88,0-.453.08-.92.24-1.4.133-.373.306-.7.52-.98.213-.28.32-.486.32-.62,0-.053-.04-.106-.12-.16-.16-.053-.307-.08-.44-.08-.48,0-.927.207-1.34.62-.272.272-.446.629-.539,1.057-.345.294-.728.615-1.181.983-.574.467-1.16.907-1.76,1.32-.6.414-1.174.767-1.72,1.06-.547.294-.98.44-1.3.44-.267,0-.494-.093-.68-.28-.187-.187-.34-.42-.46-.7-.12-.28-.207-.573-.26-.88-.054-.306-.08-.58-.08-.82,0-.32-.047-.673-.14-1.06-.094-.386-.22-.753-.38-1.1-.16-.346-.367-.64-.62-.88-.254-.24-.54-.36-.86-.36-.112,0-.212.026-.31.054-.296-.393-.684-.751-1.164-1.075-.643-.433-1.452-.771-2.424-1.014-.973-.243-2.125-.357-3.453-.342-.771.008-1.609.064-2.512.167-.903.104-1.872.268-2.905.492,3.181-1.712,5.896-3.418,8.145-5.12,2.248-1.702,4.09-3.359,5.526-4.972,1.436-1.614,2.479-3.155,3.13-4.627.65-1.472.969-2.82.956-4.045-.021-1.917-.771-3.438-2.25-4.568-1.479-1.129-3.512-1.68-6.099-1.651-1.386.015-2.897.211-4.534.589-1.636.377-3.376.99-5.22,1.837-1.845.847-3.773,1.92-5.785,3.222-2.013,1.302-4.089,2.885-6.229,4.749-.792.703-1.372,1.309-1.74,1.819C.179,13.031-.003,13.434,0,13.727c.002.267.164.398.484.395.427-.005,1.077-.292,1.951-.861.344-.217.655-.48.931-.79.277-.309.534-.619.77-.928.237-.309.46-.598.671-.867.21-.269.408-.471.593-.607,3.993-3.137,7.628-5.383,10.907-6.739,3.279-1.355,6.092-2.046,8.438-2.072,2.133-.023,3.785.426,4.955,1.346,1.17.921,1.764,2.167,1.781,3.741.013,1.227-.372,2.591-1.155,4.093-.784,1.502-2,3.095-3.649,4.779-1.648,1.685-3.736,3.428-6.263,5.229s-5.515,3.6-8.962,5.397c-.504.272-.782.409-.835.409-.08,0-.121-.079-.123-.239l-.004-.32c.074-2.987.223-5.823.448-8.505.224-2.683.472-5.052.743-7.108.025-.107.038-.241.036-.4-.005-.453-.141-.679-.407-.676-.214.002-.458.179-.734.528-.277.35-.452.819-.525,1.406-.349,2.351-.648,4.808-.9,7.371-.252,2.562-.418,5.178-.495,7.846.002.214-.009.387-.034.521-.025.134-.064.24-.117.321-.053.081-.146.149-.278.204-.133.055-.306.137-.517.245-1.301.574-1.949,1.021-1.945,1.342.002.16.202.237.602.233.16-.002.36-.024.599-.067.24-.042.532-.092.878-.149.133-.028.24-.049.32-.064.08-.014.146-.021.199-.022.133-.001.214.058.242.177s.044.339.047.659c.022,2.08.125,4.106.306,6.077.182,1.972.496,3.875.943,5.71.25,1.01.532,1.768.844,2.271.312.503.575.753.788.751.267-.003.397-.298.391-.884-.004-.374-.062-.773-.173-1.198-.279-1.064-.504-2.195-.677-3.394-.172-1.198-.307-2.477-.401-3.835.458.635,1.176,1.101,2.15,1.397.975.296,2.141.437,3.497.422,1.011-.011,2.186-.17,3.527-.479,1.34-.308,2.605-.768,3.796-1.381,1.191-.613,2.192-1.397,3.007-2.353.741-.869,1.121-1.891,1.177-3.052.137.066.282.13.389.201.16.107.28.267.36.48s.12.587.12,1.12c0,.934.16,1.707.48,2.32.32.614.786.92,1.4.92.4,0,.906-.173,1.52-.52.613-.346,1.253-.773,1.92-1.28.667-.506,1.313-1.04,1.94-1.6.313-.28.598-.539.854-.779.036.567.118,1.107.286,1.599.213.627.6.954,1.16.98.48,0,.973-.2,1.48-.6.506-.4.986-.906,1.44-1.52-.134.614-.24,1.22-.32,1.82s-.16,1.207-.24,1.82c-.614.587-1.2,1.214-1.76,1.88-.56.667-1.047,1.387-1.46,2.16-.414.774-.746,1.587-1,2.44-.253.854-.38,1.76-.38,2.72,0,1.706.44,3.52,1.32,5.44.186.373.366.64.54.8.173.16.353.24.54.24.186,0,.366-.06.54-.18.173-.12.333-.267.48-.44.146-.174.266-.354.36-.54.093-.187.167-.347.22-.48.533-1.547.926-3.36,1.18-5.44s.486-4.173.7-6.28c.053-.346.093-.74.12-1.18.026-.44.053-.9.08-1.38,1.013-.88,2.153-1.72,3.42-2.52.841-.532,1.622-1.007,2.376-1.456-.075.171-.155.339-.216.516-.2.574-.3,1.1-.3,1.58,0,.534.2.927.6,1.18.4.254.733.38,1,.38s.526-.1.78-.3c.253-.2.513-.446.78-.74.266-.293.526-.613.78-.96.253-.346.5-.666.74-.96.106.774.36,1.467.76,2.08.4.614.933.92,1.6.92.453,0,.933-.166,1.44-.5.506-.333,1.006-.72,1.5-1.16.306-.273.583-.575.869-.869-.149.361-.267.682-.329.929-.026.08-.04.2-.04.36,0,.374.114.66.34.86s.487.3.78.3c.213,0,.413-.053.6-.16.56-.293,1.52-1.12,2.88-2.48.586.854,1.22,1.454,1.9,1.8.68.347,1.406.52,2.18.52.693,0,1.4-.115,2.12-.346.72-.23,1.433-.537,2.14-.92.706-.382,1.386-.808,2.04-1.274.653-.466,1.26-.94,1.82-1.42.373-.32.56-.586.56-.8,0-.133-.08-.2-.24-.2ZM25.565,32.51c-.58.686-1.313,1.268-2.201,1.744-.888.477-1.885.835-2.988,1.073-1.104.239-2.176.364-3.216.375-.747.008-1.447-.038-2.102-.137-.654-.1-1.222-.26-1.705-.482-.482-.221-.866-.49-1.149-.807-.284-.317-.428-.702-.433-1.156l-.003-.32c-.007-.613-.071-1.039-.194-1.278-.123-.238-.251-.357-.384-.355-.267.003-.504.219-.713.647l-.027-2.44c-.003-.319.007-.573.032-.76s.077-.341.155-.462c.079-.121.21-.223.397-.305.185-.082.438-.164.757-.248,1.568-.443,2.998-.766,4.29-.966,1.291-.201,2.457-.307,3.497-.318,2.32-.025,4.037.343,5.152,1.104,1.115.762,1.678,1.662,1.689,2.702.01.907-.275,1.703-.854,2.39ZM40.435,36.387c-.014.174-.047.554-.1,1.14-.107,1.094-.22,2.18-.34,3.26-.12,1.08-.267,2.113-.44,3.1-.174.986-.367,1.914-.58,2.78-.214.866-.467,1.62-.76,2.26-.854-1.84-1.28-3.56-1.28-5.16,0-1.467.333-2.853,1-4.16.666-1.306,1.506-2.533,2.52-3.68,0,.134-.007.287-.02.46ZM52.014,28.927c-.774,1.28-1.374,2.167-1.8,2.66-.427.494-.72.74-.88.74-.107,0-.16-.08-.16-.24,0-.186.06-.44.18-.76.12-.32.28-.66.48-1.02.2-.36.433-.707.7-1.04.266-.333.546-.606.84-.82.187-.106.346-.16.48-.16.187,0,.28.094.28.28,0,.08-.04.2-.12.36Z"/>
  <path d="M120.096,26.86c-.187-.32-.454-.48-.8-.48-.48.027-.914.18-1.3.46-.387.28-.72.64-1,1.08-.144.226-.269.464-.378.712-.326.37-.707.781-1.161,1.248-.507.52-1.027,1.02-1.56,1.5-.534.48-1.06.88-1.58,1.2s-.967.48-1.34.48c-.427,0-.727-.206-.9-.62-.174-.413-.26-.966-.26-1.66,0-.586.053-1.26.16-2.02.106-.76.24-1.533.4-2.32.16-.786.34-1.56.54-2.32.2-.76.38-1.46.54-2.1.266,0,.533-.006.8-.02.267-.013.573-.033.92-.06.106,0,.253-.012.44-.038.186-.025.373-.069.56-.133.186-.064.353-.133.5-.209.146-.076.22-.165.22-.267,0-.101-.134-.152-.4-.152-.16,0-.294.014-.4.04-.454.027-.88.054-1.28.08-.4.027-.787.067-1.16.12,0-.301-.067-.624-.2-.966-.134-.343-.307-.514-.52-.514-.134,0-.274.096-.42.289-.147.192-.3.55-.46,1.071l-.08.24c-.32.027-.64.04-.96.04h-1c-.373,0-.753-.046-1.14-.14-.122-.029-.27-.034-.399-.057.005-.017.019-.032.019-.05,0-.101-.134-.152-.4-.152-.16,0-.294.014-.4.04-.454.027-.88.054-1.28.08-.4.027-.787.067-1.16.12,0-.301-.067-.624-.2-.966-.134-.343-.307-.514-.52-.514-.134,0-.274.096-.42.289-.147.192-.3.55-.46,1.071l-.08.24c-.32.027-.64.04-.96.04h-1c-.373,0-.753-.046-1.14-.14-.082-.02-.182-.021-.267-.038.527-.171,1.056-.335,1.576-.542,1.515-.601,2.878-1.383,4.09-2.346,1.212-.962,2.221-2.124,3.026-3.485.805-1.359,1.291-2.97,1.457-4.829.127-1.435-.096-2.692-.668-3.774-.573-1.081-1.333-2.013-2.281-2.794-.948-.779-2.01-1.41-3.185-1.89-1.176-.479-2.329-.836-3.458-1.071-.527-.101-1.067-.195-1.621-.285-.555-.089-1.11-.158-1.668-.208-1.461-.131-2.931-.168-4.408-.112-1.478.056-2.933.167-4.367.334-2.246.255-4.472.612-6.682,1.07-2.209.46-4.414,1.007-6.612,1.64-1.483.431-2.556.816-3.215,1.159s-1,.635-1.021.873c-.014.16.095.289.327.391.232.101.547.169.945.205.717.063,1.591.021,2.622-.128.543-.086,1.124-.295,1.743-.628.618-.333,1.256-.577,1.913-.733,1.505-.374,3.044-.739,4.615-1.095,1.571-.354,3.144-.663,4.721-.925,1.575-.261,3.138-.449,4.688-.565,1.549-.116,3.055-.109,4.516.021.531.048,1.042.106,1.531.177.489.071.969.167,1.44.289.942.245,1.924.64,2.946,1.186,1.022.548,1.945,1.231,2.769,2.055s1.475,1.771,1.956,2.845c.479,1.073.662,2.262.546,3.562-.124,1.382-.52,2.598-1.188,3.649-.67,1.051-1.513,1.953-2.53,2.705-1.018.753-2.164,1.374-3.439,1.863-1.275.488-2.58.86-3.915,1.116-1.335.256-2.647.414-3.937.472-1.291.061-2.468.042-3.53-.053-.373-.033-.75-.073-1.134-.121-.384-.048-.76-.114-1.126-.201-.606-.107-1.009-.244-1.208-.408-.201-.165-.276-.513-.229-1.045l.036-.398c.32-2.086.671-4.076,1.054-5.97.383-1.894.75-3.614,1.103-5.163.036-.104.061-.235.075-.395.041-.451-.072-.689-.337-.713-.213-.019-.474.133-.784.452-.31.32-.531.771-.662,1.347-.389,1.572-.769,3.191-1.138,4.858-.37,1.667-.702,3.371-.995,5.112-.086.367-.165.647-.235.842s-.211.282-.422.264c-.264-.023-.591-.166-.979-.429-.39-.262-.768-.576-1.133-.944-.367-.367-.686-.75-.957-1.149-.27-.399-.42-.733-.449-1.004-.137-.548-.178-1.127-.124-1.737l.068-.758c.028-.318.043-.651.048-1,.004-.347-.021-.657-.077-.93-.021-.056-.051-.166-.09-.329-.039-.164-.097-.264-.172-.297-.08-.007-.17.032-.271.116-.101.086-.196.184-.286.296-.089.112-.18.232-.271.357-.091.126-.153.214-.184.265-.474.841-.758,1.794-.853,2.855-.073.823.042,1.638.345,2.44.327.833.833,1.534,1.52,2.104.685.569,1.452,1.053,2.3,1.45.127.064.25.116.368.153.118.037.226.087.328.149.439.173.702.311.787.411.084.102.112.312.084.63-.131,1.166-.232,2.081-.305,2.744s-.132,1.26-.18,1.791c-.185,2.071-.279,4.111-.284,6.119-.005,2.007.122,3.959.381,5.856.149,1.03.348,1.805.596,2.322.248.517.479.785.691.804.265.024.422-.229.469-.761.014-.159.017-.347.01-.562s-.027-.443-.059-.688c-.249-1.709-.365-3.633-.349-5.773.016-2.141.128-4.366.334-6.678.054-.61.116-1.227.185-1.851.069-.623.144-1.238.225-1.847.092-.741.22-1.199.383-1.371.163-.173.524-.235,1.083-.186l1.237.11c1.25.111,2.636.135,4.157.069,1.521-.065,3.073-.248,4.655-.549.499-.095.989-.231,1.481-.355.022.01.031.021.057.031.227.089.62.146,1.18.171.64.027,1.247.04,1.82.04h1.7c-.187.64-.38,1.327-.58,2.06-.2.734-.387,1.487-.56,2.26-.164.728-.292,1.442-.396,2.146-.235.284-.538.631-.924,1.055-.414.454-.86.9-1.34,1.34s-.974.814-1.48,1.12c-.507.307-.96.46-1.36.46-.534,0-.887-.205-1.06-.616-.173-.41-.26-.88-.26-1.41v-.397c.266-.08.4-.371.4-.874,0-.291-.074-.595-.22-.913-.147-.317-.38-.529-.7-.635-.134-.477-.547-.715-1.24-.715-.534,0-1.034.167-1.5.5-.467.334-.867.754-1.2,1.26-.333.507-.6,1.047-.8,1.62-.2.574-.3,1.1-.3,1.58,0,.534.2.927.6,1.18.4.254.733.38,1,.38s.526-.1.78-.3c.253-.2.513-.446.78-.74.266-.293.526-.613.78-.96.253-.346.5-.666.74-.96.106.774.36,1.467.76,2.08.4.614.933.92,1.6.92.453,0,.933-.166,1.44-.5.506-.333,1.006-.72,1.5-1.16.493-.44.96-.906,1.4-1.4.162-.182.307-.35.453-.519-.019.292-.033.582-.033.86,0,1.014.16,1.867.48,2.56.32.694.906,1.04,1.76,1.04.48,0,1.026-.173,1.64-.52.613-.346,1.226-.78,1.84-1.3.613-.52,1.207-1.073,1.78-1.66.34-.347.646-.676.934-.996-.019.298-.034.593-.034.876,0,1.014.16,1.867.48,2.56.32.694.906,1.04,1.76,1.04.48,0,1.026-.173,1.64-.52.613-.346,1.226-.78,1.84-1.3.613-.52,1.207-1.073,1.78-1.66.223-.228.426-.445.627-.662-.028.222-.048.443-.048.662,0,.694.16,1.294.48,1.8.32.507.854.76,1.6.76.453,0,.873-.106,1.26-.32.386-.213.72-.5,1-.86.28-.36.493-.753.64-1.18.146-.426.22-.866.22-1.32,0-.533-.1-1.06-.3-1.58-.2-.52-.514-.966-.94-1.34ZM92.497,28.38c-.774,1.28-1.374,2.167-1.8,2.66-.427.494-.72.74-.88.74-.107,0-.16-.08-.16-.24,0-.186.06-.44.18-.76.12-.32.28-.66.48-1.02.2-.36.433-.707.7-1.04.266-.333.546-.606.84-.82.187-.106.346-.16.48-.16.187,0,.28.094.28.28,0,.08-.04.2-.12.36ZM109.196,24.12c-.2.734-.387,1.487-.56,2.26-.171.763-.308,1.511-.414,2.247-.327.371-.709.784-1.166,1.253-.507.52-1.027,1.02-1.56,1.5-.534.48-1.06.88-1.58,1.2s-.967.48-1.34.48c-.427,0-.727-.206-.9-.62-.174-.413-.26-.966-.26-1.66,0-.586.053-1.26.16-2.02.106-.76.24-1.533.4-2.32.16-.786.34-1.56.54-2.32.2-.76.38-1.46.54-2.1.266,0,.533-.006.8-.02.267-.013.573-.033.92-.06.106,0,.253-.012.44-.038.007,0,.013-.004.02-.005.235.061.571.103,1.019.123.64.027,1.247.04,1.82.04h1.7c-.187.64-.38,1.327-.58,2.06ZM119.937,29.9c-.079.4-.21.787-.394,1.16-.184.374-.408.7-.67.98-.263.28-.566.434-.907.46-.474,0-.71-.213-.71-.64,0-.293.092-.646.276-1.06.184-.414.4-.82.65-1.22s.52-.766.809-1.1c.289-.333.539-.566.75-.7.21.347.316.72.316,1.12,0,.267-.04.6-.119,1Z"/>
  <path d="M140.455,28.14c-.24,0-.507.134-.8.4-.507.427-1.067.854-1.68,1.28-.614.427-1.24.813-1.88,1.16-.64.347-1.294.627-1.96.84-.667.213-1.32.32-1.96.32-.694,0-1.354-.173-1.98-.52-.627-.346-1.18-.906-1.66-1.68-.214-.32-.454-.48-.72-.48-.213,0-.44.074-.68.22-.24.147-.48.32-.72.52-.24.2-.467.4-.68.6-.214.2-.4.367-.56.5.32-.693.76-1.56,1.32-2.6.08-.16.12-.293.12-.4,0-.347-.187-.52-.56-.52-.214,0-.44.08-.68.24-.24.16-.454.427-.64.8-.747,1.414-1.2,2.44-1.36,3.08-.026.08-.04.2-.04.36,0,.374.114.66.34.86s.487.3.78.3c.213,0,.413-.053.6-.16.56-.293,1.52-1.12,2.88-2.48.586.854,1.22,1.454,1.9,1.8.68.347,1.406.52,2.18.52.693,0,1.4-.115,2.12-.346.72-.23,1.433-.537,2.14-.92.706-.382,1.386-.808,2.04-1.274.653-.466,1.26-.94,1.82-1.42.373-.32.56-.586.56-.8,0-.133-.08-.2-.24-.2Z"/>
</svg>
